<svg width="41" height="40" viewBox="0 0 41 40" fill="none" xmlns="http://www.w3.org/2000/svg">
<path d="M37.0203 39.9999H3.34904C0.785682 39.9999 -0.821851 37.2338 0.438106 35.0035L10.2571 17.7841L16.6872 32.8746C17.2955 34.3084 18.7002 35.2352 20.2643 35.2352C21.8863 35.2352 23.3056 34.2504 23.8849 32.7443L29.6633 17.7262L29.8226 17.3206L39.9023 34.989C41.1912 37.2338 39.5837 39.9999 37.0203 39.9999Z" fill="#1A1F32"/>
<path d="M8.30176 11.4119V11.5133L8.63485 11.4119H8.30176Z" fill="#1A1F32"/>
<path d="M28.765 12.0782C28.7071 12.1941 27.7802 14.5692 27.7802 14.5692L26.9548 16.6981L26.8679 16.9153L21.1908 31.7162C21.075 32.0348 20.8288 32.2375 20.5536 32.3099C20.5101 32.3244 20.4667 32.3389 20.4232 32.3389C20.3653 32.3389 20.3219 32.3534 20.2639 32.3534C20.2205 32.3534 20.177 32.3534 20.1191 32.3389C20.0757 32.3389 20.0322 32.3244 19.9888 32.3099C19.9453 32.2955 19.9019 32.281 19.8584 32.2665C19.7571 32.223 19.6557 32.1506 19.5688 32.0637C19.5543 32.0493 19.5398 32.0348 19.5109 32.0058C19.4819 31.9624 19.4529 31.9334 19.424 31.89C19.395 31.8465 19.366 31.8031 19.3516 31.7451L12.9504 16.7125L11.3718 12.9906C9.89464 9.52933 10.6622 5.57567 13.3269 2.91094L13.5731 2.66474C13.66 2.57784 13.7324 2.50543 13.8193 2.41854C13.9062 2.34613 13.9931 2.25923 14.08 2.18682C14.1959 2.08545 14.3117 1.98407 14.4421 1.89718C14.6014 1.78132 14.7607 1.66546 14.92 1.5496C14.9634 1.52064 15.0214 1.47719 15.0648 1.44823C15.1662 1.37582 15.2676 1.31789 15.3834 1.25996C15.6441 1.11514 15.9048 0.970313 16.1799 0.839972C16.3103 0.782043 16.4551 0.724113 16.5854 0.666184C17.6861 0.217234 18.8592 0 20.0467 0C20.8432 0 21.6398 0.101376 22.4218 0.304127C22.5666 0.347574 22.7114 0.376539 22.8418 0.419986C22.9866 0.463433 23.1169 0.50688 23.2618 0.564809C24.4348 0.999277 25.5355 1.67994 26.4768 2.60681C27.5196 3.63505 28.2726 4.8226 28.7216 6.11152C29.0981 7.16872 28.2726 8.2549 27.172 8.2549C27.1285 8.2549 27.0851 8.2549 27.0272 8.2549C26.9982 8.2549 26.9548 8.25489 26.9258 8.24041C26.8679 8.24041 26.8099 8.24041 26.7375 8.22593C26.6941 8.22593 26.6506 8.22593 26.6072 8.22593H26.5492C26.4044 8.22593 26.2741 8.21145 26.1437 8.168C26.1148 8.168 26.0858 8.15352 26.0569 8.13904C25.7093 8.03766 25.3907 7.80594 25.1879 7.50182C25.1445 7.44389 25.1155 7.38596 25.0865 7.32803C25.0576 7.28458 25.0286 7.22665 25.0141 7.16873C24.7534 6.48806 24.3335 5.8798 23.7687 5.32947C22.7404 4.31572 21.3936 3.80884 20.0467 3.80884C18.6854 3.80884 17.324 4.3302 16.2958 5.35844L16.0496 5.60464C14.5145 7.13976 14.0655 9.44244 14.92 11.441L17.2227 16.8718L20.1191 23.693L22.7404 16.8718L23.508 14.8878H20.4088C20.1046 14.8878 19.8295 14.6995 19.7136 14.4243L18.7723 12.0492C18.584 11.5569 18.9461 11.0355 19.4674 11.0355H28.0699C28.6057 11.0645 28.9533 11.6003 28.765 12.0782Z" fill="#1A1F32"/>
</svg>
